<svg version="1.1" id="Laag_2" xmlns="http://www.w3.org/2000/svg" xmlns:xlink="http://www.w3.org/1999/xlink" x="0px" y="0px" width="885.386px" height="885.385px" viewBox="0 0 885.386 885.385" enable-background="new 0 0 885.386 885.385" xml:space="preserve"><circle fill="#FEFEFA" cx="442.692" cy="442.693" r="425.622"/><path fill="black" d="M442.693,26c230.132,0,416.692,186.56,416.692,416.693c0,230.134-186.561,416.692-416.692,416.692C212.56,859.385,26,672.827,26,442.693C26,212.56,212.56,26,442.693,26 M442.693,0c-59.752,0-117.73,11.708-172.324,34.8c-52.719,22.298-100.06,54.214-140.707,94.862C89.014,170.31,57.098,217.65,34.8,270.369C11.708,324.963,0,382.941,0,442.693s11.708,117.73,34.8,172.324c22.298,52.719,54.214,100.06,94.862,140.707c40.647,40.647,87.988,72.563,140.707,94.861c54.594,23.092,112.572,34.8,172.324,34.8s117.729-11.708,172.323-34.8c52.719-22.298,100.06-54.214,140.707-94.861s72.564-87.988,94.862-140.707c23.092-54.594,34.8-112.572,34.8-172.324s-11.708-117.73-34.8-172.324c-22.298-52.719-54.215-100.059-94.862-140.707C715.076,89.014,667.735,57.098,615.017,34.8C560.423,11.708,502.444,0,442.693,0L442.693,0z"/><path fill="black" d="M442.693,50.167c52.999,0,104.402,10.375,152.782,30.838c46.739,19.769,88.72,48.074,124.774,84.129c36.056,36.056,64.36,78.036,84.13,124.775c20.463,48.379,30.838,99.783,30.838,152.783s-10.375,104.403-30.838,152.783c-19.77,46.739-48.074,88.719-84.13,124.774c-36.055,36.055-78.035,64.36-124.774,84.13c-48.38,20.462-99.783,30.838-152.782,30.838c-53,0-104.403-10.376-152.783-30.838c-46.74-19.77-88.72-48.075-124.775-84.13c-36.056-36.056-64.361-78.036-84.13-124.775c-20.463-48.379-30.838-99.783-30.838-152.782S60.542,338.29,81.005,289.91c19.769-46.739,48.075-88.72,84.13-124.775c36.055-36.056,78.036-64.361,124.775-84.13C338.29,60.542,389.694,50.167,442.693,50.167 M442.693,30.167c-227.832,0-412.527,184.694-412.527,412.526s184.695,412.525,412.527,412.525c227.831,0,412.524-184.693,412.524-412.525S670.524,30.167,442.693,30.167L442.693,30.167z"/>
  
<text transform="matrix(1 0 0 1 85.7637 459.8774)" fill="#black" font-family="'Arimo'" font-size="62">W</text><text transform="matrix(1 0 0 1 417.4297 780.6099)" fill="#black" font-family="'Century'" font-size="62">S</text><text transform="matrix(1 0 0 1 749.0957 459.8774)" fill="#black" font-family="'Century'" font-size="62">E</text><text transform="matrix(1 0 0 1 417.4297 139.145)" fill="#black" font-family="'Century'" font-size="62">N</text></svg>